<svg xmlns="http://www.w3.org/2000/svg" viewBox="0 0 64 64">
  <!-- Policier cartoon mignon -->
  
  <!-- Corps bleu -->
  <ellipse cx="32" cy="50" rx="14" ry="12" fill="#1E40AF"/>
  <circle cx="32" cy="44" r="2" fill="#FCD34D"/>
  <circle cx="32" cy="52" r="2" fill="#FCD34D"/>
  <polygon points="24,46 26,42 28,46 26,48" fill="#FCD34D"/>
  
  <!-- Tête -->
  <circle cx="32" cy="24" r="14" fill="#FBBF24"/>
  
  <!-- Casquette -->
  <ellipse cx="32" cy="14" rx="16" ry="6" fill="#1E3A8A"/>
  <rect x="16" y="12" width="32" height="6" fill="#1E3A8A"/>
  <ellipse cx="32" cy="18" rx="14" ry="4" fill="#1E40AF"/>
  <ellipse cx="32" cy="18" rx="10" ry="3" fill="#1F2937"/>
  <circle cx="32" cy="12" r="4" fill="#FCD34D"/>
  <text x="32" y="15" font-size="6" fill="#1E3A8A" text-anchor="middle" font-weight="bold">P</text>
  
  <!-- Yeux -->
  <circle cx="26" cy="24" r="5" fill="white"/>
  <circle cx="38" cy="24" r="5" fill="white"/>
  <circle cx="26" cy="25" r="3" fill="#1F2937"/>
  <circle cx="38" cy="25" r="3" fill="#1F2937"/>
  <circle cx="27" cy="23" r="1.5" fill="white"/>
  <circle cx="39" cy="23" r="1.5" fill="white"/>
  
  <!-- Sourcils -->
  <path d="M22 18 L30 20" stroke="#92400E" stroke-width="2" stroke-linecap="round"/>
  <path d="M42 18 L34 20" stroke="#92400E" stroke-width="2" stroke-linecap="round"/>
  
  <!-- Nez + moustache -->
  <ellipse cx="32" cy="28" rx="2" ry="2" fill="#F59E0B"/>
  <path d="M24 32 Q28 34 32 32 Q36 34 40 32" stroke="#92400E" stroke-width="2" fill="none" stroke-linecap="round"/>
  
  <!-- Joues -->
  <ellipse cx="20" cy="28" rx="3" ry="2" fill="#FCA5A5" opacity="0.6"/>
  <ellipse cx="44" cy="28" rx="3" ry="2" fill="#FCA5A5" opacity="0.6"/>
  
  <!-- Bras + mains -->
  <rect x="10" y="42" width="8" height="14" rx="4" fill="#1E40AF"/>
  <rect x="46" y="42" width="8" height="14" rx="4" fill="#1E40AF"/>
  <circle cx="14" cy="58" r="4" fill="#FBBF24"/>
  <circle cx="50" cy="58" r="4" fill="#FBBF24"/>
  
  <!-- Pieds -->
  <ellipse cx="24" cy="60" rx="6" ry="4" fill="#1F2937"/>
  <ellipse cx="40" cy="60" rx="6" ry="4" fill="#1F2937"/>
</svg>