<svg xmlns="http://www.w3.org/2000/svg" viewBox="0 0 64 64">
  <!-- Porte secrète (téléporteur) -->
  
  <!-- Lueur extérieure -->
  <ellipse cx="32" cy="32" rx="30" ry="30" fill="#A78BFA" opacity="0.2"/>
  <ellipse cx="32" cy="32" rx="24" ry="24" fill="#8B5CF6" opacity="0.3"/>
  
  <!-- Portail -->
  <ellipse cx="32" cy="32" rx="20" ry="26" fill="#6D28D9"/>
  <ellipse cx="32" cy="32" rx="16" ry="22" fill="#7C3AED"/>
  <ellipse cx="32" cy="32" rx="12" ry="18" fill="#8B5CF6"/>
  
  <!-- Spirale centrale -->
  <path d="M32 14 Q44 20 44 32 Q44 44 32 50 Q20 44 20 32 Q20 20 32 14" 
        stroke="#C4B5FD" stroke-width="2" fill="none" opacity="0.8"/>
  <path d="M32 20 Q40 24 40 32 Q40 40 32 44 Q24 40 24 32 Q24 24 32 20" 
        stroke="#DDD6FE" stroke-width="2" fill="none" opacity="0.6"/>
  
  <!-- Centre brillant -->
  <ellipse cx="32" cy="32" rx="6" ry="8" fill="#EDE9FE"/>
  <ellipse cx="32" cy="32" rx="3" ry="4" fill="white"/>
  
  <!-- Étoiles autour -->
  <polygon points="8,16 9,19 12,19 10,21 11,24 8,22 5,24 6,21 4,19 7,19" fill="#C4B5FD"/>
  <polygon points="56,16 57,19 60,19 58,21 59,24 56,22 53,24 54,21 52,19 55,19" fill="#C4B5FD"/>
  <polygon points="8,48 9,51 12,51 10,53 11,56 8,54 5,56 6,53 4,51 7,51" fill="#DDD6FE"/>
  <polygon points="56,48 57,51 60,51 58,53 59,56 56,54 53,56 54,53 52,51 55,51" fill="#DDD6FE"/>
  
  <!-- Particules -->
  <circle cx="20" cy="20" r="2" fill="#EDE9FE" opacity="0.8"/>
  <circle cx="44" cy="44" r="2" fill="#EDE9FE" opacity="0.8"/>
  <circle cx="16" cy="40" r="1.5" fill="#C4B5FD" opacity="0.6"/>
  <circle cx="48" cy="24" r="1.5" fill="#C4B5FD" opacity="0.6"/>
</svg>