<svg xmlns="http://www.w3.org/2000/svg" viewBox="0 0 64 64">
  <!-- Voiture de police cartoon -->
  
  <!-- Ombre -->
  <ellipse cx="32" cy="58" rx="26" ry="4" fill="#1F2937" opacity="0.3"/>
  
  <!-- Corps de la voiture -->
  <rect x="4" y="32" width="56" height="20" rx="4" fill="#1E40AF"/>
  
  <!-- Toit / cabine -->
  <path d="M16 32 L20 18 L44 18 L48 32" fill="#1E3A8A"/>
  
  <!-- Vitres -->
  <path d="M18 30 L21 20 L31 20 L31 30 Z" fill="#7DD3FC"/>
  <path d="M33 30 L33 20 L43 20 L46 30 Z" fill="#7DD3FC"/>
  
  <!-- Gyrophare -->
  <rect x="26" y="12" width="12" height="6" rx="2" fill="#DC2626"/>
  <rect x="28" y="10" width="8" height="4" rx="1" fill="#EF4444"/>
  <!-- Lumière clignotante -->
  <ellipse cx="30" cy="11" rx="2" ry="1.5" fill="#FCA5A5"/>
  <ellipse cx="34" cy="11" rx="2" ry="1.5" fill="#93C5FD"/>
  
  <!-- Bande blanche POLICE -->
  <rect x="4" y="38" width="56" height="6" fill="white"/>
  <text x="32" y="43" font-size="5" fill="#1E40AF" text-anchor="middle" font-weight="bold">POLICE</text>
  
  <!-- Phares avant -->
  <rect x="4" y="36" width="6" height="4" rx="1" fill="#FCD34D"/>
  <rect x="54" y="36" width="6" height="4" rx="1" fill="#FCD34D"/>
  
  <!-- Feux arrière -->
  <rect x="4" y="44" width="4" height="4" rx="1" fill="#DC2626"/>
  <rect x="56" y="44" width="4" height="4" rx="1" fill="#DC2626"/>
  
  <!-- Roues -->
  <circle cx="16" cy="52" r="8" fill="#1F2937"/>
  <circle cx="16" cy="52" r="5" fill="#4B5563"/>
  <circle cx="16" cy="52" r="2" fill="#9CA3AF"/>
  
  <circle cx="48" cy="52" r="8" fill="#1F2937"/>
  <circle cx="48" cy="52" r="5" fill="#4B5563"/>
  <circle cx="48" cy="52" r="2" fill="#9CA3AF"/>
  
  <!-- Pare-chocs -->
  <rect x="2" y="50" width="4" height="4" rx="1" fill="#6B7280"/>
  <rect x="58" y="50" width="4" height="4" rx="1" fill="#6B7280"/>
  
  <!-- Badge étoile -->
  <polygon points="10,28 11,25 13,25 11.5,23 12.5,20 10,22 7.5,20 8.5,23 7,25 9,25" fill="#FCD34D"/>
</svg>