<svg xmlns="http://www.w3.org/2000/svg" viewBox="0 0 64 64">
  <!-- Raton laveur voleur mignon -->
  
  <!-- Corps -->
  <ellipse cx="32" cy="48" rx="14" ry="12" fill="#6B7280"/>
  <ellipse cx="32" cy="50" rx="8" ry="8" fill="#D1D5DB"/>
  
  <!-- Tête -->
  <circle cx="32" cy="24" r="16" fill="#6B7280"/>
  
  <!-- Masque de voleur -->
  <path d="M16 20 Q32 16 48 20 L48 28 Q32 24 16 28 Z" fill="#1F2937"/>
  
  <!-- Yeux -->
  <ellipse cx="24" cy="23" rx="4" ry="5" fill="white"/>
  <ellipse cx="40" cy="23" rx="4" ry="5" fill="white"/>
  <circle cx="25" cy="24" r="2" fill="#1F2937"/>
  <circle cx="41" cy="24" r="2" fill="#1F2937"/>
  <circle cx="26" cy="22" r="1" fill="white"/>
  <circle cx="42" cy="22" r="1" fill="white"/>
  
  <!-- Museau + sourire -->
  <ellipse cx="32" cy="32" rx="6" ry="4" fill="#E5E7EB"/>
  <ellipse cx="32" cy="30" rx="3" ry="2" fill="#1F2937"/>
  <path d="M28 34 Q32 38 36 34" stroke="#1F2937" stroke-width="2" fill="none" stroke-linecap="round"/>
  
  <!-- Oreilles -->
  <ellipse cx="18" cy="12" rx="5" ry="6" fill="#6B7280"/>
  <ellipse cx="46" cy="12" rx="5" ry="6" fill="#6B7280"/>
  <ellipse cx="18" cy="12" rx="3" ry="4" fill="#9CA3AF"/>
  <ellipse cx="46" cy="12" rx="3" ry="4" fill="#9CA3AF"/>
  
  <!-- Queue rayée -->
  <path d="M46 48 Q58 44 56 36 Q54 28 50 32" stroke="#6B7280" stroke-width="8" fill="none" stroke-linecap="round"/>
  <path d="M48 46 L52 42" stroke="#1F2937" stroke-width="3" stroke-linecap="round"/>
  <path d="M52 42 L54 38" stroke="#1F2937" stroke-width="3" stroke-linecap="round"/>
  <path d="M54 36 L52 32" stroke="#1F2937" stroke-width="3" stroke-linecap="round"/>
  
  <!-- Pattes -->
  <ellipse cx="24" cy="58" rx="5" ry="4" fill="#4B5563"/>
  <ellipse cx="40" cy="58" rx="5" ry="4" fill="#4B5563"/>
  
  <!-- Sac de butin -->
  <ellipse cx="12" cy="44" rx="8" ry="10" fill="#92400E"/>
  <path d="M8 36 L16 36" stroke="#78350F" stroke-width="3" stroke-linecap="round"/>
  <text x="12" y="48" font-size="10" fill="#FCD34D" text-anchor="middle">$</text>
  <path d="M20 44 L14 42" stroke="#6B7280" stroke-width="4" stroke-linecap="round"/>
</svg>