<svg xmlns="http://www.w3.org/2000/svg" viewBox="0 0 64 64">
  <!-- Chemin secret (mur qui clignote) -->
  
  <!-- Mur de base (plus transparent) -->
  <rect x="0" y="0" width="64" height="64" fill="#78716C" opacity="0.7"/>
  
  <!-- Briques semi-transparentes -->
  <rect x="2" y="2" width="28" height="12" rx="1" fill="#DC2626" opacity="0.6"/>
  <rect x="34" y="2" width="28" height="12" rx="1" fill="#B91C1C" opacity="0.6"/>
  <rect x="18" y="18" width="28" height="12" rx="1" fill="#DC2626" opacity="0.6"/>
  <rect x="2" y="34" width="28" height="12" rx="1" fill="#DC2626" opacity="0.6"/>
  <rect x="34" y="34" width="28" height="12" rx="1" fill="#B91C1C" opacity="0.6"/>
  <rect x="18" y="50" width="28" height="12" rx="1" fill="#DC2626" opacity="0.6"/>
  
  <!-- Étoiles brillantes (indice secret) -->
  <polygon points="16,28 17,31 20,31 18,33 19,36 16,34 13,36 14,33 12,31 15,31" fill="#FCD34D" opacity="0.8"/>
  <polygon points="48,28 49,31 52,31 50,33 51,36 48,34 45,36 46,33 44,31 47,31" fill="#FCD34D" opacity="0.8"/>
  
  <!-- Particules magiques -->
  <circle cx="24" cy="16" r="2" fill="#A78BFA" opacity="0.7"/>
  <circle cx="40" cy="48" r="1.5" fill="#A78BFA" opacity="0.6"/>
  <circle cx="8" cy="40" r="1" fill="#C4B5FD" opacity="0.5"/>
  <circle cx="56" cy="20" r="1.5" fill="#C4B5FD" opacity="0.6"/>
  
  <!-- Lueur centrale -->
  <ellipse cx="32" cy="32" rx="20" ry="20" fill="#A78BFA" opacity="0.15"/>
</svg>