<svg xmlns="http://www.w3.org/2000/svg" viewBox="0 0 64 64">
  <!-- Voiture garée (obstacle) -->
  
  <!-- Ombre -->
  <ellipse cx="32" cy="58" rx="26" ry="4" fill="#1F2937" opacity="0.3"/>
  
  <!-- Corps de la voiture -->
  <rect x="4" y="32" width="56" height="20" rx="4" fill="#EF4444"/>
  
  <!-- Toit / cabine -->
  <path d="M16 32 L20 18 L44 18 L48 32" fill="#DC2626"/>
  
  <!-- Vitres -->
  <path d="M18 30 L21 20 L31 20 L31 30 Z" fill="#7DD3FC"/>
  <path d="M33 30 L33 20 L43 20 L46 30 Z" fill="#7DD3FC"/>
  
  <!-- Phares avant -->
  <rect x="4" y="36" width="6" height="4" rx="1" fill="#FCD34D"/>
  <rect x="54" y="36" width="6" height="4" rx="1" fill="#FCD34D"/>
  
  <!-- Feux arrière -->
  <rect x="4" y="44" width="4" height="4" rx="1" fill="#FCA5A5"/>
  <rect x="56" y="44" width="4" height="4" rx="1" fill="#FCA5A5"/>
  
  <!-- Roues -->
  <circle cx="16" cy="52" r="8" fill="#1F2937"/>
  <circle cx="16" cy="52" r="5" fill="#4B5563"/>
  <circle cx="16" cy="52" r="2" fill="#9CA3AF"/>
  
  <circle cx="48" cy="52" r="8" fill="#1F2937"/>
  <circle cx="48" cy="52" r="5" fill="#4B5563"/>
  <circle cx="48" cy="52" r="2" fill="#9CA3AF"/>
  
  <!-- Poignées de porte -->
  <rect x="24" y="38" width="4" height="2" rx="1" fill="#B91C1C"/>
  <rect x="36" y="38" width="4" height="2" rx="1" fill="#B91C1C"/>
  
  <!-- Rétroviseurs -->
  <ellipse cx="6" cy="30" rx="3" ry="2" fill="#1F2937"/>
  <ellipse cx="58" cy="30" rx="3" ry="2" fill="#1F2937"/>
</svg>