<svg xmlns="http://www.w3.org/2000/svg" viewBox="0 0 64 64">
  <!-- Cœur (vie) -->
  
  <!-- Ombre -->
  <path d="M32 58 C12 42 4 28 4 18 C4 8 14 4 22 4 C28 4 32 10 32 10 C32 10 36 4 42 4 C50 4 60 8 60 18 C60 28 52 42 32 58 Z" 
        fill="#1F2937" opacity="0.2" transform="translate(2, 2)"/>
  
  <!-- Cœur principal -->
  <path d="M32 56 C12 40 4 26 4 16 C4 6 14 2 22 2 C28 2 32 8 32 8 C32 8 36 2 42 2 C50 2 60 6 60 16 C60 26 52 40 32 56 Z" 
        fill="#DC2626"/>
  
  <!-- Dégradé intérieur -->
  <path d="M32 50 C16 38 10 26 10 18 C10 10 18 6 24 6 C28 6 32 10 32 10 C32 10 36 6 40 6 C46 6 54 10 54 18 C54 26 48 38 32 50 Z" 
        fill="#EF4444"/>
  
  <!-- Reflet -->
  <ellipse cx="20" cy="16" rx="8" ry="6" fill="#FCA5A5" opacity="0.6"/>
  <circle cx="16" cy="14" r="3" fill="white" opacity="0.5"/>
</svg>