<svg xmlns="http://www.w3.org/2000/svg" viewBox="0 0 64 64">
  <!-- Étoile (score) -->
  
  <!-- Ombre -->
  <polygon points="32,6 38,24 58,24 42,36 48,56 32,44 16,56 22,36 6,24 26,24" 
           fill="#1F2937" opacity="0.2" transform="translate(2, 2)"/>
  
  <!-- Étoile principale -->
  <polygon points="32,4 38,22 58,22 42,34 48,54 32,42 16,54 22,34 6,22 26,22" 
           fill="#F59E0B"/>
  
  <!-- Étoile intérieure (plus claire) -->
  <polygon points="32,10 36,22 50,22 40,30 44,46 32,38 20,46 24,30 14,22 28,22" 
           fill="#FBBF24"/>
  
  <!-- Reflet -->
  <polygon points="32,14 34,22 44,22 36,28 24,22 30,22" 
           fill="#FDE68A" opacity="0.6"/>
  
  <!-- Brillance -->
  <circle cx="24" cy="18" r="2" fill="white" opacity="0.7"/>
</svg>